#!OML:ASF H:\Male1\Project 1\Capture day 1\Session 1\Male1.ASF
:FULLY-SPECIFIED
:DEGREES
636
root 22.2238 15.5153 0.06702 180.383 -79.9821 -179.777
lowerback 9.11521 -0.259022 -0.444322
upperback 7.05995 -0.698102 -1.04874
thorax 2.20672 -0.484094 -0.791001
lowerneck -6.90205 6.57847 11.6864
upperneck 2.70785 8.43355 -13.4775
head 3.02571 3.91734 -5.56561
rclavicle -3.6477e-014 8.34896e-015
rhumerus -4.45271 40.3685 -90.2115
rradius 127.161
rwrist -1.97554
rhand -19.1134 29.1191
rfingers 7.12502
rthumb 7.19568 -0.738527
lclavicle -3.6477e-014 8.34896e-015
lhumerus -11.675 -17.5599 95.2919
lradius 140.194
lwrist 7.96807
lhand 0.299031 -20.5378
lfingers 7.12502
lthumb 25.8768 7.72149
rfemur -9.54728 13.9737 20.5353
rtibia 23.9786
rfoot -22.6619 -28.9289
rtoes -21.1363
lfemur -2.98268 -14.5839 -14.5712
ltibia 19.1054
lfoot -22.3794 28.9727
ltoes -0.68408
637
root 22.2394 15.5082 0.0724727 178.966 -80.8775 -178.626
lowerback 9.3364 -0.0179211 -0.322671
upperback 6.98022 -0.366782 -1.0092
thorax 2.00539 -0.312006 -0.839466
lowerneck -7.2514 6.04797 11.0308
upperneck 3.45281 7.73891 -12.3527
head 3.13769 3.5856 -5.14432
rclavicle -2.28602e-015 1.39149e-014
rhumerus -3.91625 40.2024 -90.0419
rradius 127.455
rwrist -2.15787
rhand -18.7643 28.9728
rfingers 7.12502
rthumb 7.53271 -0.87311
lclavicle -2.28602e-015 1.39149e-014
lhumerus -10.2023 -17.5812 94.4993
lradius 141.185
lwrist 8.64397
lhand 0.654725 -20.9772
lfingers 7.12502
lthumb 26.2173 7.23191
rfemur -9.17215 13.8425 20.7956
rtibia 23.9614
rfoot -23.0777 -29.3491
rtoes -20.4279
lfemur -3.35686 -14.3772 -14.2938
ltibia 19.6741
lfoot -21.5788 28.2584
ltoes -2.21023
638
root 22.2503 15.5004 0.0786193 178.563 -81.8855 -178.567
lowerback 9.16905 0.233566 -0.368087
upperback 7.14629 -0.0380239 -1.03523
thorax 2.27525 -0.150255 -0.866338
lowerneck -7.55674 5.66652 10.762
upperneck 3.81282 7.19943 -11.5465
head 3.18699 3.33293 -4.87863
rclavicle 1.28216e-014 2.38542e-015
rhumerus -2.95011 39.7489 -89.5679
rradius 127.749
rwrist -2.49832
rhand -18.2093 29.0711
rfingers 7.12502
rthumb 8.06836 -0.754894
lclavicle 1.28216e-014 2.38542e-015
lhumerus -7.99925 -18.1571 93.5273
lradius 141.443
lwrist 8.057
lhand -2.20568 -23.0778
lfingers 7.12502
lthumb 23.4761 5.50987
rfemur -8.66882 13.6218 20.8391
rtibia 23.8961
rfoot -23.5975 -29.8038
rtoes -19.4152
lfemur -3.71546 -14.1565 -14.2601
ltibia 20.3333
lfoot -20.7984 27.5115
ltoes -3.92021
639
root 22.2609 15.4903 0.087279 176.59 -82.9998 -176.957
lowerback 9.35938 0.382716 -0.155453
upperback 7.11605 0.176258 -1.04454
thorax 2.14344 -0.033175 -1.0104
lowerneck -7.83379 5.20027 10.4495
upperneck 4.46892 6.5709 -10.7627
head 3.31668 3.03585 -4.61861
rclavicle 5.66536e-015 4.77083e-015
rhumerus -2.41587 39.3447 -89.387
rradius 128.074
rwrist -2.592
rhand -17.7749 29.1973
rfingers 7.12502
rthumb 8.48757 -0.612141
lclavicle 5.66536e-015 4.77083e-015
lhumerus -5.80406 -18.725 92.5376
lradius 141.618
lwrist 7.90494
lhand -3.31419 -22.9193
lfingers 7.12502
lthumb 22.4124 5.80046
rfemur -8.11032 13.2909 21.0848
rtibia 23.8353
rfoot -24.0624 -30.3716
rtoes -18.5403
lfemur -4.06517 -13.9374 -14.0321
ltibia 20.9781
lfoot -20.0139 26.6214
ltoes -6.0098
640
root 22.2756 15.481 0.0960803 172.419 -84.1281 -173.069
lowerback 9.40898 0.423876 0.076997
upperback 7.14774 0.248639 -0.914805
thorax 2.15168 0.0100756 -1.01211
lowerneck -8.09011 4.98974 9.88053
upperneck 4.80977 6.2839 -9.86585
head 3.37989 2.91158 -4.26009
rclavicle -1.39149e-015 -3.97569e-015
rhumerus -1.66629 39.1374 -89.0489
rradius 128.286
rwrist -2.48634
rhand -17.4431 29.2709
rfingers 7.12502
rthumb 8.80781 -0.525295
lclavicle -1.39149e-015 -3.97569e-015
lhumerus -3.45259 -19.2694 91.5654
lradius 141.512
lwrist 6.87558
lhand -5.48716 -22.4315
lfingers 7.12502
lthumb 20.3253 6.5249
rfemur -7.65994 12.8929 21.4963
rtibia 23.8086
rfoot -24.4193 -30.929
rtoes -18.0425
lfemur -4.51319 -13.7103 -13.5869
ltibia 21.5617
lfoot -19.273 25.595
ltoes -8.11514
641
root 22.2908 15.4751 0.104592 170.579 -85.2345 -171.471
lowerback 9.61087 0.421831 0.0375056
upperback 7.05804 0.249116 -0.963049
thorax 1.94735 0.0122833 -1.0402
lowerneck -8.35332 4.7764 9.36704
upperneck 5.35298 5.99619 -8.97131
head 3.51186 2.78893 -3.91142
rclavicle -8.44835e-015 1.19271e-015
rhumerus -1.12937 38.9112 -89.078
rradius 128.39
rwrist -2.38609
rhand -17.0757 29.3957
rfingers 7.12502
rthumb 9.16226 -0.385238
lclavicle -8.44835e-015 1.19271e-015
lhumerus -1.25285 -19.7918 90.4082
lradius 141.498
lwrist 5.91776
lhand -5.7264 -19.0274
lfingers 7.12502
lthumb 20.0954 9.95339
rfemur -7.30226 12.3634 21.4871
rtibia 23.7921
rfoot -24.76 -31.2344
rtoes -17.7226
lfemur -4.99236 -13.4852 -13.5216
ltibia 22.1087
lfoot -18.5871 24.6224
ltoes -9.65377
642
root 22.3077 15.4705 0.112663 167.88 -86.1235 -168.983
lowerback 9.77399 0.506446 -0.0163725
upperback 6.99028 0.361545 -1.01479
thorax 1.78941 0.0695729 -1.07277
lowerneck -8.46146 4.45387 8.75161
upperneck 5.70363 5.5584 -7.90826
head 3.54476 2.60338 -3.5093
rclavicle -2.78299e-015 1.90833e-014
rhumerus -0.605014 38.6745 -89.0732
rradius 128.55
rwrist -2.47856
rhand -17.086 29.2872
rfingers 7.12502
rthumb 9.15235 -0.494223
lclavicle -2.78299e-015 1.90833e-014
lhumerus 0.979161 -20.0152 89.2091
lradius 141.188
lwrist 5.61681
lhand -5.52215 -19.1316
lfingers 7.12502
lthumb 20.2917 9.82843
rfemur -7.06601 11.8315 21.4942
rtibia 23.8138
rfoot -24.9419 -31.444
rtoes -17.8163
lfemur -5.38358 -13.2846 -13.4393
ltibia 22.5526
lfoot -18.0038 23.7931
ltoes -10.7259
